<svg xmlns="http://www.w3.org/2000/svg" viewBox="0 0 600 960"><defs><radialGradient id="bg" cx="50%" cy="42%" r="72%"><stop offset="0" stop-color="#21131f"/><stop offset=".55" stop-color="#0b090c"/><stop offset="1" stop-color="#050506"/></radialGradient><linearGradient id="g" x1="0" y1="0" x2="1" y2="1"><stop stop-color="#936a2e"/><stop offset=".45" stop-color="#d8b46c"/><stop offset=".7" stop-color="#a97936"/><stop offset="1" stop-color="#e3bf78"/></linearGradient></defs><rect width="600" height="960" rx="34" fill="url(#bg)"/><rect x="28" y="28" width="544" height="904" rx="25" fill="none" stroke="url(#g)" stroke-width="4"/><rect x="41" y="41" width="518" height="878" rx="19" fill="none" stroke="#ac7c3a" stroke-width="1.5"/><g fill="#c99d55"><circle cx="117" cy="169" r="3"/><circle cx="478" cy="190" r="2.5"/><circle cx="147" cy="279" r="2"/><circle cx="448" cy="287" r="2"/><circle cx="126" cy="634" r="2.5"/><circle cx="476" cy="622" r="3"/></g><g stroke="url(#g)" fill="none"><circle cx="300" cy="430" r="154" stroke-width="1.8"/><g opacity=".85"><path d="M300 246v-64M300 678v-64M116 430H52M548 430h-64M170 300l-45-45M475 605l-45-45M170 560l-45 45M475 255l-45 45"/></g></g><path d="M300 270 327 383 440 410 327 437 300 550 273 437 160 410 273 383Z" fill="url(#g)"/><path d="M300 313 315 395 397 410 315 425 300 507 285 425 203 410 285 395Z" fill="#dcb96f" opacity=".72"/><g fill="url(#g)"><path d="M300 120l8 20 20 8-20 8-8 20-8-20-20-8 20-8Z"/><path d="M300 688l7 17 17 7-17 7-7 17-7-17-17-7 17-7Z"/><path d="M99 104l6 15 15 6-15 6-6 15-6-15-15-6 15-6Z"/><path d="M501 104l6 15 15 6-15 6-6 15-6-15-15-6 15-6Z"/></g><g fill="#d8b36d" font-family="Georgia, 'Times New Roman', serif" text-anchor="middle"><text x="300" y="805" font-size="24" letter-spacing="7">THE</text><text x="300" y="861" font-size="54" letter-spacing="7">STAR</text></g><path d="M200 770h200M220 888h160" stroke="#b78844"/></svg>